<?xml version="1.0" encoding="UTF-8" standalone="no"?>
<!-- Created with Inkscape (http://www.inkscape.org/) -->

<svg
   xmlns:dc="http://purl.org/dc/elements/1.1/"
   xmlns:cc="http://creativecommons.org/ns#"
   xmlns:rdf="http://www.w3.org/1999/02/22-rdf-syntax-ns#"
   xmlns:svg="http://www.w3.org/2000/svg"
   xmlns="http://www.w3.org/2000/svg"
   xmlns:sodipodi="http://sodipodi.sourceforge.net/DTD/sodipodi-0.dtd"
   xmlns:inkscape="http://www.inkscape.org/namespaces/inkscape"
   width="210mm"
   height="297mm"
   viewBox="0 0 210 297"
   version="1.1"
   id="svg8"
   inkscape:version="0.92.3 (2405546, 2018-03-11)"
   sodipodi:docname="hlab.svg">
  <defs
     id="defs2" />
  <sodipodi:namedview
     id="base"
     pagecolor="#ffffff"
     bordercolor="#666666"
     borderopacity="1.0"
     inkscape:pageopacity="0.0"
     inkscape:pageshadow="2"
     inkscape:zoom="0.98994949"
     inkscape:cx="177.9099"
     inkscape:cy="484.50849"
     inkscape:document-units="mm"
     inkscape:current-layer="layer1"
     showgrid="false"
     inkscape:window-width="1920"
     inkscape:window-height="1025"
     inkscape:window-x="0"
     inkscape:window-y="0"
     inkscape:window-maximized="1" />
  <metadata
     id="metadata5">
    <rdf:RDF>
      <cc:Work
         rdf:about="">
        <dc:format>image/svg+xml</dc:format>
        <dc:type
           rdf:resource="http://purl.org/dc/dcmitype/StillImage" />
        <dc:title></dc:title>
      </cc:Work>
    </rdf:RDF>
  </metadata>
  <g
     inkscape:label="Livello 1"
     inkscape:groupmode="layer"
     id="layer1">
    <g
       id="g850"
       transform="matrix(0.98931243,0,0,0.98931243,-7.558051,8.0927674)"
       style="stroke:#000000;stroke-width:0.20216061;stroke-miterlimit:4;stroke-dasharray:0.1010803, 0.1010803;stroke-dashoffset:0;stroke-opacity:1"
       inkscape:export-xdpi="90"
       inkscape:export-ydpi="90">
      <path
         style="fill:#ae4f99;stroke:#000000;stroke-width:0.20216061;stroke-miterlimit:4;stroke-dasharray:0.1010803, 0.1010803;stroke-dashoffset:0;stroke-opacity:1"
         d="m 148.58236,180.32878 c -0.16177,-0.29104 -0.79784,-2.07698 -1.41348,-3.96875 -2.35236,-7.22851 -5.18932,-14.31034 -6.88944,-17.19791 -0.4284,-0.72761 -1.03568,-1.8587 -1.34952,-2.51355 -0.97565,-2.03571 -4.10872,-6.21461 -5.85136,-7.80455 -2.47107,-2.25455 -4.04463,-3.19959 -6.69164,-4.01885 l -2.38125,-0.73701 -10.45104,-0.0133 c -9.80398,-0.0124 -10.60445,-0.0492 -12.92877,-0.59384 -10.660899,-2.49807 -16.503481,-9.69037 -17.156192,-21.11951 -0.252483,-4.42108 0.409244,-6.25525 0.969944,-2.6885 0.275299,1.75124 1.468977,6.09025 2.195089,7.97915 0.52428,1.36385 2.722901,4.49204 3.92407,5.58314 2.637068,2.39544 5.382589,3.66021 8.918682,4.10854 1.113907,0.14123 2.228907,0.32141 2.477777,0.4004 0.50733,0.16102 6.54696,-0.31564 7.20657,-0.56876 0.43871,-0.16835 0.60242,-1.55216 0.21215,-1.79336 -0.11656,-0.072 -1.21789,0.0965 -2.4474,0.37447 -3.19159,0.72162 -3.9039,0.68857 -4.24051,-0.19679 -0.33751,-0.88773 -0.0857,-1.10117 3.54183,-3.00218 2.58573,-1.35504 2.59447,-1.36299 2.41369,-2.19442 -0.27248,-1.25319 -0.60228,-2.02508 -0.86524,-2.02508 -0.12933,0 -1.94798,0.82236 -4.04144,1.82747 -5.662939,2.71889 -7.642756,3.21066 -7.642756,1.89841 0,-0.79892 1.329074,-1.91834 5.886976,-4.95835 2.29196,-1.52868 4.16719,-2.925 4.16719,-3.10293 0,-0.47745 -1.53148,-2.80836 -1.84518,-2.80836 -0.14813,0 -2.03122,1.06041 -4.18465,2.35645 -2.15343,1.29605 -4.841909,2.81409 -5.974397,3.37344 -2.004425,0.99 -2.069068,1.00336 -2.435754,0.5034 -0.207177,-0.28248 -0.376685,-0.63242 -0.376685,-0.77766 0,-0.30303 3.466995,-3.75127 7.143751,-7.10511 l 2.513545,-2.29278 -0.79375,-0.65352 c -2.080714,-1.7131 -1.786907,-1.7964 -5.171312,1.46618 -3.722367,3.58839 -6.846567,6.3046 -7.251568,6.3046 -0.446704,0 -0.938583,-0.56913 -0.938583,-1.086 0,-0.51117 2.843107,-4.87356 5.239306,-8.03906 1.107398,-1.46293 1.521024,-2.2087 1.343586,-2.4225 -0.140994,-0.16989 -1.024983,-0.58023 -1.964415,-0.91188 -0.939432,-0.33165 -1.70806,-0.70004 -1.70806,-0.81865 0,-0.28561 0.09376,-0.2795 2.709384,0.17663 2.746727,0.47899 6.361933,1.71571 8.667702,2.96513 6.66076,3.60925 11.0459,9.25726 13.88814,17.88778 l 1.15045,3.49335 2.8656,-0.0944 c 5.29731,-0.17448 9.26106,0.85734 13.21896,3.44109 7.89463,5.15367 12.78005,15.63041 15.85719,34.00561 0.92749,5.53853 1.12257,8.51321 0.48281,7.36227 z m -20.60794,-10.05031 c -6.53563,-1.44485 -11.53222,-6.85928 -15.01973,-16.27573 -1.15797,-3.12656 -2.19563,-7.16567 -1.98315,-7.7194 0.12483,-0.32528 0.78305,-0.45909 3.00254,-0.61037 2.76631,-0.18855 2.85501,-0.1774 3.3021,0.41532 0.43698,0.57932 0.52633,0.59364 1.82871,0.29302 0.7531,-0.17384 1.77464,-0.31607 2.27009,-0.31607 0.7554,0 0.92942,0.11398 1.07803,0.7061 0.21174,0.84363 -0.30337,1.33562 -2.62584,2.508 -0.84385,0.42597 -1.60165,0.95009 -1.684,1.1647 -0.25051,0.6528 0.17305,2.76495 0.55446,2.76495 0.19145,0 2.00642,-0.75663 4.03327,-1.6814 5.9716,-2.72461 7.22789,-3.01233 7.22789,-1.65536 0,0.70123 -2.21957,2.47137 -7.1846,5.72982 -3.42604,2.24843 -3.19399,1.93158 -2.57491,3.51592 0.86714,2.2192 0.79686,2.21643 4.17392,0.16461 4.83522,-2.93777 7.34235,-4.1435 7.89652,-3.79761 1.02782,0.64152 0.69781,1.27154 -2.09969,4.00857 -1.49863,1.46624 -3.46892,3.29015 -4.37842,4.05314 -0.90951,0.76299 -1.65365,1.47831 -1.65365,1.58958 0,0.34962 2.1916,2.09565 2.63043,2.09565 0.23018,0 1.72679,-1.25841 3.32581,-2.79645 3.68901,-3.54836 6.73718,-6.19939 7.12809,-6.19939 0.47912,0 0.93859,0.58352 0.93859,1.192 0,0.56607 -2.52622,4.46266 -4.85268,7.48508 -0.73661,0.95696 -1.21792,1.82784 -1.13279,2.04969 0.11285,0.29407 0.65821,0.38573 2.29505,0.38573 1.59876,0 2.11947,0.0845 2.03914,0.33073 -0.27967,0.8574 -5.65897,1.23502 -8.53518,0.59917 z"
         id="path864"
         inkscape:connector-curvature="0"
         sodipodi:nodetypes="cccccccccssccccccccccsssssscccsccccssscsssscccssccsccsccscccscsccccccsscssccscs" />
      <path
         style="fill:#5899a3;stroke:#000000;stroke-width:0.20216061;stroke-miterlimit:4;stroke-dasharray:0.1010803, 0.1010803;stroke-dashoffset:0;stroke-opacity:1"
         d="m 148.58236,180.32878 c -0.16177,-0.29104 -0.79784,-2.07698 -1.41348,-3.96875 -2.35236,-7.22851 -5.18932,-14.31034 -6.88944,-17.19791 -0.4284,-0.72761 -1.03689,-1.8587 -1.3522,-2.51355 -0.86982,-1.80645 -3.33118,-5.22348 -5.12048,-7.1086 -2.95496,-3.11321 -5.94699,-4.66238 -10.27061,-5.31777 -1.23778,-0.18763 -5.32378,-0.26738 -11.19108,-0.21843 -8.7899,0.0733 -9.36256,0.0482 -11.71921,-0.51311 -10.695149,-2.5476 -16.503545,-9.70107 -17.156192,-21.12911 -0.252483,-4.42108 0.409244,-6.25525 0.969944,-2.6885 0.275299,1.75124 1.468977,6.09025 2.195089,7.97915 0.52428,1.36385 2.722901,4.49204 3.92407,5.58314 2.637068,2.39544 5.382589,3.66021 8.918682,4.10854 1.113907,0.14123 2.228907,0.32141 2.477777,0.4004 0.50733,0.16102 6.54696,-0.31564 7.20657,-0.56876 0.43871,-0.16835 0.60242,-1.55216 0.21215,-1.79336 -0.11656,-0.072 -1.21789,0.0965 -2.4474,0.37447 -3.19159,0.72162 -3.9039,0.68857 -4.24051,-0.19679 -0.33751,-0.88773 -0.0857,-1.10117 3.54183,-3.00218 2.58573,-1.35504 2.59447,-1.36299 2.41369,-2.19442 -0.27248,-1.25319 -0.60228,-2.02508 -0.86524,-2.02508 -0.12933,0 -1.94798,0.82236 -4.04144,1.82747 -5.662939,2.71889 -7.642756,3.21066 -7.642756,1.89841 0,-0.79892 1.329074,-1.91834 5.886976,-4.95835 2.29196,-1.52868 4.16719,-2.925 4.16719,-3.10293 0,-0.47745 -1.53148,-2.80836 -1.84518,-2.80836 -0.14813,0 -2.03122,1.06041 -4.18465,2.35645 -2.15343,1.29605 -4.841909,2.81409 -5.974397,3.37344 -2.004425,0.99 -2.069068,1.00336 -2.435754,0.5034 -0.207177,-0.28248 -0.376685,-0.61256 -0.376685,-0.73352 0,-0.3943 2.177706,-2.59739 5.88698,-5.95561 2.000911,-1.81154 3.638016,-3.38806 3.638016,-3.50338 0,-0.30301 -2.712062,-2.12619 -3.162796,-2.12619 -0.209052,0 -1.648743,1.25015 -3.199315,2.77812 -1.550572,1.52797 -2.941497,2.77813 -3.090947,2.77813 -0.383691,0 -0.795086,-0.55175 -0.987505,-1.3244 -0.172037,-0.69082 0.217959,-1.39361 2.534664,-4.56761 1.072607,-1.46953 1.095235,-1.54053 0.607404,-1.90593 -0.278691,-0.20875 -1.25085,-0.64522 -2.160355,-0.96994 -0.909505,-0.32472 -1.653646,-0.68744 -1.653646,-0.80605 0,-0.28561 0.09376,-0.2795 2.709384,0.17663 2.746727,0.47899 6.361933,1.71571 8.667702,2.96513 6.66076,3.60925 11.0459,9.25726 13.88814,17.88778 l 1.15045,3.49335 2.8656,-0.0944 c 5.29731,-0.17448 9.26106,0.85734 13.21896,3.44109 7.89463,5.15367 12.78005,15.63041 15.85719,34.00561 0.92749,5.53853 1.12257,8.51321 0.48281,7.36227 z M 114.59102,157.87 c -2.07531,-4.34446 -4.13217,-11.20029 -3.53672,-11.78843 0.13825,-0.13656 1.56105,-0.2854 3.16178,-0.33075 2.87686,-0.0815 2.91143,-0.0753 2.99802,0.53616 0.0689,0.48639 0.21026,0.58851 0.66146,0.47781 0.31562,-0.0774 1.17432,-0.21906 1.90823,-0.31471 1.27313,-0.16594 1.34969,-0.14029 1.66826,0.55892 0.3072,0.67421 0.27454,0.78188 -0.40832,1.34595 -0.40823,0.33721 -1.30338,0.88272 -1.98924,1.21222 -0.68586,0.32951 -1.20277,0.72927 -1.1487,0.88836 0.0541,0.15909 0.18246,0.96276 0.28531,1.78594 0.10285,0.82318 0.21817,1.49669 0.25627,1.49669 0.0381,0 1.42337,-0.65107 3.07837,-1.44682 1.655,-0.79575 3.72251,-1.69221 4.59446,-1.99215 1.50684,-0.51832 1.60223,-0.52226 1.92588,-0.0797 0.18728,0.25612 0.30652,0.64216 0.26498,0.85788 -0.0985,0.51134 -1.97995,1.96355 -5.82066,4.49266 -1.79327,1.18088 -3.01046,2.14669 -2.88405,2.28844 0.19263,0.21602 0.4452,0.80671 1.38186,3.23173 l 0.23377,0.60523 1.52414,-0.98155 c 3.25738,-2.09774 3.9326,-2.47432 4.71254,-2.62822 0.69016,-0.13619 0.85319,-0.0583 1.12465,0.53753 0.51592,1.13233 -0.46599,2.56096 -3.46773,5.04538 l -1.53593,1.27122 0.74218,0.62223 c 1.72009,1.44214 2.96527,2.16113 4.71092,2.7202 1.01865,0.32624 2.03068,0.66304 2.24896,0.74846 0.61263,0.23974 0.77592,0.25473 3.1309,0.28732 1.63465,0.0226 2.17696,0.11606 2.09699,0.36125 -9.03491,5.49047 -19.505,-6.89441 -21.91858,-11.80925 z"
         id="path862"
         inkscape:connector-curvature="0"
         sodipodi:nodetypes="ccccccccssccccccccccsssssscccsssssscccsssscccssccccccccccccssscccccccccccccccccc" />
      <path
         style="fill:#e43254;stroke:#000000;stroke-width:0.20216061;stroke-miterlimit:4;stroke-dasharray:0.1010803, 0.1010803;stroke-dashoffset:0;stroke-opacity:1"
         d="m 148.39735,179.13816 c -0.0965,-0.21828 -0.83366,-2.34343 -1.63822,-4.72256 -3.18647,-9.4226 -6.6413,-16.97717 -9.87962,-21.60349 -1.88622,-2.69469 -5.22373,-5.94637 -7.14787,-6.96405 -3.96052,-2.09472 -8.62697,-2.7036 -16.65932,-2.17372 -2.93668,0.19373 -6.32148,0.27594 -7.52179,0.18269 -11.520357,-0.89497 -18.858346,-6.54365 -21.235442,-16.34676 -0.512029,-2.1116 -0.857521,-8.43253 -0.460909,-8.43253 0.152556,0 0.417256,0.80367 0.588224,1.78594 0.523171,3.00576 1.983507,7.0712 3.297074,9.17873 3.047447,4.88943 7.61991,7.44467 14.295363,7.98871 1.75132,0.14273 6.46135,-0.23407 7.39251,-0.59138 0.5708,-0.21904 0.55782,-1.8996 -0.0196,-2.53764 -0.34066,-0.37642 -0.455,-1.08257 -0.49606,-3.06354 -0.0523,-2.52343 -0.19256,-3.28031 -0.73805,-3.98252 -0.38949,-0.50137 -1.49551,-3.27906 -1.49697,-3.7595 -0.002,-0.71012 -1.86638,-3.4313 -2.35073,-3.4313 -0.25115,0 -1.5219,0.66898 -2.82387,1.48662 -3.276491,2.05764 -3.341851,2.07509 -4.24435,1.13309 -0.695656,-0.72611 -0.721852,-0.82737 -0.362413,-1.40087 0.213093,-0.34001 1.315402,-1.42638 2.449576,-2.41417 1.215737,-1.05882 2.029507,-1.96541 1.982637,-2.20877 -0.10563,-0.54846 -2.588752,-2.41371 -3.215529,-2.4154 -0.27263,-7.4e-4 -1.839661,1.3126 -3.499716,2.93313 -1.65332,1.61396 -3.157572,2.88509 -3.34278,2.82474 -0.49933,-0.16272 -1.054777,-1.45998 -0.871871,-2.03626 0.08761,-0.27603 0.92846,-1.54559 1.868562,-2.82124 1.786064,-2.42356 2.017125,-3.07735 1.246251,-3.52635 -0.94524,-0.55055 0.458369,-0.3055 2.861201,0.49952 6.167002,2.06614 10.902292,5.69629 14.333962,10.98867 1.51646,2.3387 2.54503,4.59862 3.9137,8.59896 l 1.22207,3.57187 4.08115,0.0148 c 3.44842,0.0125 4.40931,0.10962 6.19781,0.6264 10.28819,2.97277 16.5398,12.031 20.46566,29.6536 1.43877,6.45841 2.59486,14.74212 1.80936,12.96459 z m -19.76147,-8.90005 c -5.60702,-1.05505 -10.15933,-5.04528 -13.61201,-11.93131 -1.96576,-3.92051 -4.27503,-11.42291 -3.68341,-11.96676 0.12638,-0.11618 1.37944,-0.29143 2.78457,-0.38945 2.38594,-0.16643 2.57998,-0.14224 2.93593,0.36595 0.34772,0.49644 0.50391,0.52088 1.78081,0.27872 2.02324,-0.3837 2.2655,-0.343 2.62251,0.44057 0.29204,0.64096 0.2533,0.76249 -0.42055,1.31912 -0.40823,0.33721 -1.30289,0.88272 -1.98815,1.21222 -1.0694,0.51423 -1.24726,0.71158 -1.2553,1.39286 -0.009,0.76112 0.44772,2.77813 0.62904,2.77813 0.048,0 1.44142,-0.65107 3.09642,-1.44682 1.655,-0.79575 3.72251,-1.69221 4.59446,-1.99215 1.50684,-0.51832 1.60223,-0.52226 1.92588,-0.0797 0.18728,0.25612 0.30652,0.64216 0.26498,0.85788 -0.0979,0.50844 -1.96834,1.95484 -5.7847,4.47334 -2.06282,1.3613 -3.03139,2.15378 -2.95861,2.42073 0.1952,0.71598 0.96865,2.50161 1.34315,3.10087 l 0.36704,0.58732 1.49615,-0.96364 c 3.22507,-2.0772 3.90621,-2.45674 4.68457,-2.61033 0.69016,-0.13619 0.85319,-0.0583 1.12465,0.53753 0.51688,1.13442 -0.46453,2.55931 -3.48551,5.06057 l -1.55371,1.2864 1.30511,1.197 c 1.0436,0.95715 1.77903,1.34676 3.67037,1.94445 1.3009,0.41109 2.58016,0.86267 2.84281,1.00349 0.26265,0.14083 1.25094,0.32827 2.19622,0.41654 2.61722,0.2444 1.6682,0.72039 -1.55608,0.78047 -1.48785,0.0277 -3.00284,-0.006 -3.36664,-0.074 z"
         id="path860"
         inkscape:connector-curvature="0"
         sodipodi:nodetypes="csssscsscsscccccssccccccccscccscccscccsccssccccsscccscccscccccccccc" />
      <path
         style="fill:#4a5f99;stroke:#000000;stroke-width:0.20216061;stroke-miterlimit:4;stroke-dasharray:0.1010803, 0.1010803;stroke-dashoffset:0;stroke-opacity:1"
         d="m 148.39735,179.13816 c -0.0965,-0.21828 -0.83366,-2.34343 -1.63822,-4.72256 -3.18647,-9.4226 -6.6413,-16.97717 -9.87962,-21.60349 -1.88622,-2.69469 -5.22373,-5.94637 -7.14787,-6.96405 -3.96052,-2.09472 -8.62697,-2.7036 -16.65932,-2.17372 -2.93668,0.19373 -6.32148,0.27594 -7.52179,0.18269 -11.520357,-0.89497 -18.858346,-6.54365 -21.235442,-16.34676 -0.512029,-2.1116 -0.857521,-8.43253 -0.460909,-8.43253 0.152556,0 0.417256,0.80367 0.588224,1.78594 0.523171,3.00576 1.983507,7.0712 3.297074,9.17873 3.047447,4.88943 7.61991,7.44467 14.295363,7.98871 1.75132,0.14273 6.46135,-0.23407 7.39251,-0.59138 0.5708,-0.21904 0.55782,-1.8996 -0.0196,-2.53764 -0.34066,-0.37642 -0.455,-1.08257 -0.49606,-3.06354 -0.0523,-2.52343 -0.19256,-3.28031 -0.73805,-3.98252 -0.38949,-0.50137 -1.49551,-3.27906 -1.49697,-3.7595 -0.002,-0.71012 -1.86638,-3.4313 -2.35073,-3.4313 -0.25115,0 -1.5219,0.66898 -2.82387,1.48662 -3.276491,2.05764 -3.341851,2.07509 -4.24435,1.13309 -0.695656,-0.72611 -0.721852,-0.82737 -0.362413,-1.40087 0.213093,-0.34001 1.315402,-1.42638 2.449576,-2.41417 1.215737,-1.05882 2.029507,-1.96541 1.982637,-2.20877 -0.10563,-0.54846 -2.588752,-2.41371 -3.215529,-2.4154 -0.27263,-7.4e-4 -1.839661,1.3126 -3.499716,2.93313 -1.65332,1.61396 -3.157572,2.88509 -3.34278,2.82474 -0.49933,-0.16272 -1.054777,-1.45998 -0.871871,-2.03626 0.08761,-0.27603 0.92846,-1.54559 1.868562,-2.82124 1.786064,-2.42356 2.017125,-3.07735 1.246251,-3.52635 -0.94524,-0.55055 0.458369,-0.3055 2.861201,0.49952 6.167002,2.06614 10.902292,5.69629 14.333962,10.98867 1.51646,2.3387 2.54503,4.59862 3.9137,8.59896 l 1.22207,3.57187 4.08115,0.0148 c 3.44842,0.0125 4.40931,0.10962 6.19781,0.6264 10.28819,2.97277 16.5398,12.031 20.46566,29.6536 1.43877,6.45841 2.59486,14.74212 1.80936,12.96459 z m -19.76147,-8.90005 c -5.60702,-1.05505 -10.15933,-5.04528 -13.61201,-11.93131 -1.96576,-3.92051 -4.27503,-11.42291 -3.68341,-11.96676 0.12638,-0.11618 1.38354,-0.29173 2.79368,-0.39012 2.4816,-0.17313 2.57641,-0.15929 2.95406,0.43125 0.22221,0.34748 0.46601,1.63517 0.56635,2.99136 0.0969,1.30969 0.35938,3.09563 0.58329,3.96875 1.70397,6.64459 3.26137,9.72812 6.35773,12.58777 1.3238,1.22259 1.90462,1.54585 3.92161,2.18261 1.30221,0.41109 2.58255,0.86267 2.8452,1.00349 0.26265,0.14083 1.25094,0.32827 2.19622,0.41654 2.61722,0.2444 1.6682,0.72039 -1.55608,0.78047 -1.48785,0.0277 -3.00284,-0.006 -3.36664,-0.074 z"
         id="path858"
         inkscape:connector-curvature="0"
         sodipodi:nodetypes="csssscsscsscccccssccccccccscccscccscccscccscccccccc" />
      <path
         style="fill:#51656e;stroke:#000000;stroke-width:0.20216061;stroke-miterlimit:4;stroke-dasharray:0.1010803, 0.1010803;stroke-dashoffset:0;stroke-opacity:1"
         d="m 148.39735,179.13816 c -0.0965,-0.21828 -0.83366,-2.34343 -1.63822,-4.72256 -3.18647,-9.4226 -6.6413,-16.97717 -9.87962,-21.60349 -1.88622,-2.69469 -5.22373,-5.94637 -7.14787,-6.96405 -3.96052,-2.09472 -8.62697,-2.7036 -16.65932,-2.17372 -2.93668,0.19373 -6.32148,0.27594 -7.52179,0.18269 -11.520357,-0.89497 -18.858346,-6.54365 -21.235442,-16.34676 -0.512029,-2.1116 -0.857521,-8.43253 -0.460909,-8.43253 0.152556,0 0.417256,0.80367 0.588224,1.78594 0.523171,3.00576 1.983507,7.0712 3.297074,9.17873 3.047447,4.88943 7.61991,7.44467 14.295363,7.98871 1.75132,0.14273 6.46135,-0.23407 7.39251,-0.59138 0.5708,-0.21904 0.55782,-1.8996 -0.0196,-2.53764 -0.34243,-0.37838 -0.45255,-1.0723 -0.48619,-3.06354 -0.0359,-2.12417 -0.15944,-2.82884 -0.7066,-4.02957 -0.36472,-0.80037 -0.98006,-2.28865 -1.36742,-3.30729 -0.85253,-2.24189 -2.65482,-4.6991 -5.26574,-7.17921 -1.49203,-1.41729 -2.554658,-2.14128 -4.546044,-3.09734 -4.62687,-2.22133 -4.942894,-2.94006 -0.662128,-1.50587 6.167002,2.06614 10.902292,5.69629 14.333962,10.98867 1.51646,2.3387 2.54503,4.59862 3.9137,8.59896 l 1.22207,3.57187 4.08115,0.0148 c 3.44841,0.0125 4.40931,0.10962 6.19781,0.6264 10.28818,2.97277 16.53979,12.031 20.46566,29.6536 1.43877,6.45841 2.59486,14.74212 1.80936,12.96459 z m -19.76147,-8.90005 c -5.60702,-1.05505 -10.15933,-5.04528 -13.61201,-11.93131 -1.96576,-3.92051 -4.27503,-11.42291 -3.68341,-11.96676 0.12638,-0.11618 1.38354,-0.29173 2.79368,-0.39012 2.4816,-0.17313 2.57641,-0.15929 2.95406,0.43125 0.22221,0.34748 0.46601,1.63517 0.56635,2.99136 0.0969,1.30969 0.35938,3.09563 0.58329,3.96875 1.70397,6.64459 3.26137,9.72812 6.35773,12.58777 1.3238,1.22259 1.90462,1.54585 3.92161,2.18261 1.30221,0.41109 2.58255,0.86267 2.8452,1.00349 0.26265,0.14083 1.25094,0.32827 2.19622,0.41654 2.61722,0.2444 1.6682,0.72039 -1.55608,0.78047 -1.48785,0.0277 -3.00284,-0.006 -3.36664,-0.074 z"
         id="path856"
         inkscape:connector-curvature="0"
         sodipodi:nodetypes="csssscsscsscscscccscscccscccscccscccccccc" />
      <path
         style="fill:#2a4d5a;stroke:#000000;stroke-width:0.20216061;stroke-miterlimit:4;stroke-dasharray:0.1010803, 0.1010803;stroke-dashoffset:0;stroke-opacity:1"
         d="m 148.13849,177.89899 c -0.0712,-0.11882 -0.44689,-1.22512 -0.83476,-2.45845 -0.38786,-1.23332 -1.30853,-3.85233 -2.04592,-5.82001 -6.46859,-17.26109 -12.84182,-24.99131 -21.51673,-26.09808 -0.7276,-0.0928 -1.71161,-0.40291 -2.18669,-0.68906 -1.05794,-0.63722 -3.9887,-0.68826 -5.5298,-0.0963 -3.65977,1.40576 -13.40229,1.12989 -18.212674,-0.51572 -8.330446,-2.8498 -13.321607,-9.68299 -13.812632,-18.91029 -0.08131,-1.52797 -0.08573,-2.71859 -0.0098,-2.64583 0.07591,0.0728 0.455377,1.32291 0.843264,2.77812 2.145787,8.05016 6.815996,12.91995 13.695639,14.28093 3.878983,0.76738 11.128163,0.42294 11.500143,-0.54641 0.0731,-0.1906 0.0289,-1.48505 -0.0984,-2.87657 -0.14762,-1.61442 -0.13893,-2.49922 0.024,-2.44491 0.37581,0.12527 0.6414,0.72102 0.8201,1.83957 0.18483,1.15694 0.45775,1.25778 0.8823,0.32599 l 0.30354,-0.66619 0.92628,0.60005 c 0.50946,0.33002 0.92775,0.74887 0.92956,0.93077 0.002,0.1819 0.23105,0.55851 0.50945,0.83691 0.46101,0.46101 0.83005,0.49647 4.1362,0.39741 4.09114,-0.12257 6.23503,0.13917 9.11596,1.11297 10.57398,3.57415 17.23354,15.90387 20.48147,37.92001 0.37902,2.56918 0.39957,3.27892 0.0795,2.7451 z m -27.7047,-36.87415 c 0.83188,-0.41986 2.6982,-2.10335 2.33179,-2.10335 -0.0817,0 -0.66948,0.2908 -1.30628,0.64622 -1.71818,0.959 -3.44551,1.27443 -5.2014,0.94984 -0.80847,-0.14946 -1.51966,-0.22204 -1.5804,-0.16129 -0.23114,0.23113 1.23843,0.97164 2.34853,1.18342 1.33872,0.2554 2.11365,0.13833 3.40776,-0.51484 z m 9.12813,29.07928 c -2.32477,-0.29369 -3.2622,-0.5905 -5.45101,-1.72593 -4.23858,-2.19873 -7.71354,-6.67456 -10.29846,-13.26467 -1.33107,-3.39348 -2.69785,-8.45156 -2.34302,-8.67086 0.13922,-0.086 1.3761,-0.22344 2.74862,-0.30532 2.9817,-0.1779 2.81894,-0.37517 3.28847,3.98585 0.16927,1.57216 0.47184,3.23704 0.67237,3.69974 0.48922,1.1288 1.19657,3.48884 1.19657,3.99229 0,1.371 2.84449,5.92017 5.15233,8.24006 1.19739,1.20366 1.65334,1.44761 4.57407,2.4474 1.78426,0.61076 3.45113,1.1123 3.70417,1.11453 0.25303,0.002 0.63865,0.11947 0.85693,0.26053 0.29607,0.19134 0.15037,0.25751 -0.57367,0.26053 -0.5338,0.002 -1.12912,0.0481 -1.32292,0.10194 -0.1938,0.0538 -1.18581,-0.007 -2.20445,-0.13609 z"
         id="path854"
         inkscape:connector-curvature="0"
         sodipodi:nodetypes="ccccccsscccccscccccsccscccsccccccssccccsccccccc" />
      <path
         style="fill:#07161b;stroke:#000000;stroke-width:0.20216061;stroke-miterlimit:4;stroke-dasharray:0.1010803, 0.1010803;stroke-dashoffset:0;stroke-opacity:1"
         d="m 146.9479,173.91234 c -1.71062,-5.0701 -4.37319,-11.63564 -6.19637,-15.27939 -1.01937,-2.03729 -1.97183,-3.84999 -2.11658,-4.0282 -0.18146,-0.22343 -0.0768,-0.70899 0.33699,-1.56381 0.33009,-0.68187 0.67837,-1.9648 0.77396,-2.85096 l 0.17379,-1.6112 1.60588,3.30729 c 1.61406,3.32416 3.26449,8.14399 4.30348,12.56771 0.30761,1.30969 0.66457,2.79797 0.79326,3.30729 0.12868,0.50933 0.48102,2.41433 0.78297,4.23334 0.30196,1.81901 0.60995,3.57518 0.68443,3.9026 0.0745,0.32742 0.0438,0.59518 -0.0681,0.59501 -0.11192,-1.6e-4 -0.5951,-1.16102 -1.07375,-2.57968 z m -19.0727,-4.20402 c -4.77845,-1.03588 -9.45478,-5.24347 -12.48086,-11.22982 -1.78934,-3.53975 -4.08628,-11.067 -3.5426,-11.60935 0.13622,-0.13589 1.07272,-0.33146 2.08111,-0.4346 l 1.83344,-0.18754 -0.57667,0.80986 c -0.31716,0.44541 -0.57666,1.02211 -0.57666,1.28153 0,0.39564 0.11963,0.35706 0.74208,-0.23928 1.32989,-1.27412 1.48352,-1.07222 1.93164,2.53848 0.18045,1.45389 0.50668,2.77807 0.80766,3.2783 0.27772,0.46156 0.67758,1.74149 0.88858,2.84428 0.45754,2.39134 1.10811,3.69697 3.49341,7.01095 2.24059,3.11293 3.42832,3.95143 7.37176,5.2043 1.66162,0.52791 3.02112,1.00642 3.02112,1.06336 0,0.23567 -3.42923,0.009 -4.99401,-0.33047 z m 9.40529,-17.46937 c -0.34907,-0.67503 -0.35255,-0.96792 -0.0279,-2.34799 0.20399,-0.86722 0.37274,-1.9297 0.37502,-2.36106 0.004,-0.74695 0.0262,-0.76226 0.46715,-0.32128 0.65498,0.65497 0.67299,4.71317 0.0238,5.36235 -0.40923,0.40924 -0.46644,0.38657 -0.83804,-0.33202 z M 99.664,142.44496 c -2.540606,-0.56559 -5.9435,-2.12631 -7.969026,-3.65498 -3.147907,-2.37572 -5.881926,-6.57302 -6.808066,-10.45182 -0.43797,-1.83429 -0.965618,-5.15966 -0.965618,-6.08557 0,-0.85523 0.446519,-0.39106 0.645832,0.67136 1.137037,6.06093 5.30941,11.71213 10.334377,13.99723 1.804999,0.82082 1.757022,0.80802 5.196111,1.38614 l 2.55029,0.4287 -0.34311,0.82034 c -0.57371,1.37171 -2.28545,1.16866 -4.518684,-0.536 -0.779161,-0.59475 -1.10136,-0.73927 -0.928635,-0.41652 0.496028,0.92683 2.25229,2.42625 3.389479,2.89378 1.03857,0.42699 1.49042,0.86345 0.8939,0.86345 -0.13362,0 -0.40151,0.0454 -0.59531,0.10085 -0.19381,0.0555 -0.590499,0.0478 -0.88154,-0.017 z"
         id="path852"
         inkscape:connector-curvature="0"
         sodipodi:nodetypes="ccccccccccccccccccccscccsscscccccccccccscsccccccsccc" />
    </g>
    <text
       xml:space="preserve"
       style="font-style:normal;font-weight:normal;font-size:21.79689789px;line-height:125%;font-family:sans-serif;letter-spacing:0px;word-spacing:0px;writing-mode:vertical-lr;fill:#2a4d5a;fill-opacity:1;stroke:#000000;stroke-width:0.48437545px;stroke-linecap:butt;stroke-linejoin:miter;stroke-opacity:1"
       x="62.003605"
       y="117.31071"
       id="text870"
       inkscape:export-xdpi="90"
       inkscape:export-ydpi="90"><tspan
         sodipodi:role="line"
         id="tspan868"
         x="117.31071"
         y="62.003605"
         style="font-style:normal;font-variant:normal;font-weight:normal;font-stretch:normal;font-family:Dyuthi;-inkscape-font-specification:Dyuthi;writing-mode:vertical-lr;text-orientation:upright;fill:#2a4d5a;fill-opacity:1;stroke:#000000;stroke-width:0.48437545px;stroke-opacity:1">HLAB</tspan></text>
  </g>
</svg>
